<?xml version="1.0" encoding="utf-8"?>
<!-- Generator: Adobe Illustrator 19.0.1, SVG Export Plug-In . SVG Version: 6.00 Build 0)  -->
<!DOCTYPE svg PUBLIC "-//W3C//DTD SVG 1.1//EN" "http://www.w3.org/Graphics/SVG/1.1/DTD/svg11.dtd">
<svg version="1.1" id="Layer_1" xmlns="http://www.w3.org/2000/svg" xmlns:xlink="http://www.w3.org/1999/xlink" x="0px" y="0px"
	 width="228.7px" height="131.2px" viewBox="0 0 228.7 131.2" enable-background="new 0 0 228.7 131.2" xml:space="preserve">
<g>
	<g>
		<g id="XMLID_1_">
			<g>
				<path fill="#809EAD" d="M137.2,38.2l-4,2.4c-0.2-0.9-0.4-1.8-0.7-2.7L137.2,38.2z"/>
				<path fill="#809EAD" d="M133.1,40.6c1.6,8-0.2,17.3-4.9,26.7l0.2-14.9l-6.8-0.1c0.1-1.7,0-3.3-0.2-4.9L133.1,40.6z"/>
				<path fill="#809EAD" d="M121.4,47.4c-0.5-3.1-1.5-5.9-3.2-8.5c-0.5-0.7-1.1-1.4-1.7-2.1l15.9,1c0.2,0.9,0.5,1.8,0.7,2.7
					L121.4,47.4z"/>
				<path fill="#363D52" d="M120.3,79.8L120.3,79.8c3.2-4.1,5.9-8.3,8-12.5l-0.3,25.2l-7.8-0.1L120.3,79.8z"/>
				<path fill="#363D52" d="M120.6,58.9c0.1-0.3,0.2-0.6,0.2-0.9c0.1-0.6,0.3-1.2,0.4-1.8c0.2-1.3,0.4-2.6,0.4-3.8l6.8,0.1
					l-0.2,14.9v0c-2.1,4.2-4.8,8.4-8,12.5l0.2-14.5c0-0.8,0-1.9,0.1-3.3C120.5,60.7,120.6,59.7,120.6,58.9L120.6,58.9z"/>
				<path fill="#809EAD" d="M120.3,79.8c-2,2.5-4.1,5-6.5,7.4l6.5-27.4l0,0l0,0c0.1-0.3,0.2-0.5,0.2-0.8c0,0.8,0,1.8-0.1,3.1
					c0,1.4-0.1,2.5-0.1,3.3L120.3,79.8L120.3,79.8z"/>
				<path fill="#363D52" d="M116.4,52.2l3.5,0c-0.2,7.2-3.4,15.3-9.1,23L116.4,52.2z"/>
				<path fill="#FFFFFF" d="M116.6,36.9l-1.5-0.1l-0.5,0.9c-0.2-0.2-0.4-0.3-0.6-0.5l0.7-1.3l1,0.1C116,36.3,116.3,36.6,116.6,36.9z
					"/>
				<path fill="#FFFFFF" d="M114,37.2c-0.2-0.2-0.3-0.4-0.5-0.5l0.4-0.8c0.1-0.2,0.3-0.4,0.6-0.5c0.1-0.1,0.2-0.1,0.3-0.2
					c0.3,0.3,0.6,0.5,0.9,0.8l-1-0.1L114,37.2z"/>
				<path fill="#B1C0C9" d="M108.7,83.6l-1.4-6.6l2.6-0.6c0.3-0.4,0.6-0.8,0.9-1.1L108.7,83.6z"/>
				<path fill="#363D52" d="M107.3,77l1.4,6.6l2-8.3c5.7-7.7,8.9-15.8,9.1-23l1.8,0c-0.1,1.3-0.2,2.5-0.4,3.8
					c-0.1,0.6-0.2,1.2-0.4,1.8c-0.1,0.3-0.2,0.6-0.2,0.9v-0.2l-0.2,1l0,0l0,0c-0.3,1.2-0.8,2.5-1.3,3.8c-0.9,2.2-2,4.4-3.2,6.6
					c-0.4,0.6-0.8,1.2-1.2,1.9v0c-0.4,0.6-0.8,1.2-1.2,1.9c-0.6,0.9-1.3,1.9-2,2.8l0,0l0,0c0,0,0,0,0,0.1L108,92.2l-3.6,0l-2.9-13.8
					L107.3,77z"/>
				<path fill="#363D52" d="M108,92.2l3.4-15.4c0,0,0,0,0-0.1l0,0l0,0c0.7-0.9,1.4-1.9,2-2.8c0.4-0.6,0.8-1.2,1.2-1.9v0
					c0.4-0.6,0.8-1.2,1.2-1.9c1.3-2.2,2.3-4.4,3.2-6.6c0.5-1.2,0.9-2.5,1.3-3.8l-6.5,27.4v0c-1.7,1.7-3.5,3.4-5.3,5.1L108,92.2z"/>
				<path fill="#B1C0C9" d="M107.3,77L105,66.8c1.9-3.9,2.8-7.9,2.7-11.4l11.9-6.9c0.2,1.2,0.2,2.5,0.2,3.8l-3.5,0l-5.6,23.1
					c-0.3,0.4-0.6,0.8-0.9,1.1L107.3,77z"/>
				<path fill="#B1C0C9" d="M107.7,55.4c-0.1-1.6-0.3-3-0.8-4.5l7.6-13.2c0.7,0.7,1.4,1.6,2,2.4c1.7,2.5,2.7,5.3,3.1,8.3L107.7,55.4
					L107.7,55.4z"/>
				<polygon fill="#363D52" points="103,57.7 103.1,58.1 103,58.2 102.7,58.4 103,57.7 				"/>
				<polygon fill="#363D52" points="103.1,58.1 103,58.2 103.1,58.1 				"/>
				<path fill="#B1C0C9" d="M107.7,55.4l-0.3,0.2l-4.3,2.5l-0.1-0.4v0l3.9-6.8C107.4,52.3,107.7,53.8,107.7,55.4z"/>
				<path fill="#363D52" d="M101.5,78.3l-0.9-4.4c1.8-2.3,3.3-4.7,4.5-7.1l2.2,10.2L101.5,78.3z"/>
				<path fill="#363D52" d="M102.2,59.2c-0.2,0.4-0.8,0.8-1.3,0.7c-0.1,0-0.2,0-0.2-0.1c-0.1,0-0.1-0.1-0.2-0.1
					c0-0.1-0.1-0.1-0.1-0.2c0,0,0-0.1,0-0.1c0,0,0-0.1,0-0.1c0,0,0,0,0,0c0-0.1,0.1-0.1,0.1-0.2v0l2-3.5l0.5,2.1l-0.4,0.7l0,0v0v0
					L102.2,59.2z"/>
				<path fill="#363D52" d="M95.3,79.7l-6.1,1.4l0.4-29.2l12.2,0.2l0.8,3.5l-2,3.5v0c0,0.1-0.1,0.1-0.1,0.2c0,0,0,0,0,0
					c0,0,0,0.1,0,0.1c0,0,0,0.1,0,0.1c0,0.1,0,0.1,0.1,0.2c0,0,0.1,0.1,0.2,0.1c0.1,0,0.1,0,0.2,0.1c0.4,0,1-0.3,1.3-0.7l0.4-0.8v0
					v0l0,0l0.3-0.2l0.2-0.1l1.9,8.8c-1.2,2.4-2.7,4.8-4.5,7.1l-3.3-15.5c0,0.8,0,1.8,0,3.3c0,1.4,0,2.5,0,3.3l-0.2,13
					C96.6,78.6,96,79.1,95.3,79.7L95.3,79.7z"/>
				<path fill="#363D52" d="M97.1,78l0,1.4l-1.8,0.4C96,79.1,96.6,78.6,97.1,78z"/>
				<polygon fill="#363D52" points="89.1,92 89.3,81.1 95.3,79.7 95.3,79.7 97.1,79.3 96.9,92.1 				"/>
				<path fill="#DAD7C5" d="M86.3,30.3l0.7-9.6c18.3-4.2,34.7-0.8,42.3,10.6c1.1,1.5,1.9,3.2,2.6,4.9l-16.7-1.1c-0.1,0-0.2,0-0.3,0
					C108.3,29.6,97.9,28,86.3,30.3z"/>
				<path fill="#E8E5D2" d="M113.4,36.7l-7.2,12.5c-0.3-0.5-0.5-1-0.8-1.4c-0.3-0.5-0.7-0.9-1-1.3c-0.4-0.4-0.8-0.8-1.2-1.2
					c-0.2-0.2-0.5-0.4-0.7-0.6c-0.2-0.2-0.4-0.3-0.6-0.5c-0.2-0.1-0.4-0.3-0.6-0.4c-0.3-0.2-0.6-0.3-0.8-0.5
					c-0.2-0.1-0.4-0.2-0.7-0.3c-0.3-0.2-0.7-0.3-1.1-0.5c-0.3-0.1-0.6-0.2-0.9-0.3c-0.2-0.1-0.4-0.1-0.6-0.2
					c-0.3-0.1-0.5-0.1-0.8-0.2c-0.1,0-0.3-0.1-0.4-0.1c-0.4-0.1-0.8-0.2-1.2-0.2c-0.4-0.1-0.9-0.1-1.3-0.2c-0.1,0-0.2,0-0.3,0
					c-0.4,0-0.8-0.1-1.2-0.1c-0.3,0-0.7,0-1,0c-0.3,0-0.6,0-0.9,0c-0.3,0-0.6,0-0.9,0c-0.2,0-0.3,0-0.5,0c-0.4,0-0.8,0-1.1,0.1
					c-0.1,0-0.1,0-0.2,0c-0.5,0.1-1,0.1-1.6,0.2l0.7-9.7C97.3,29.6,107.3,31.2,113.4,36.7z"/>
				<path fill="#E8E5D2" d="M86.2,31.8l-0.7,9.7c-2,0.3-4,0.8-6.1,1.4l-10.2-5.1C74.9,34.9,80.7,32.9,86.2,31.8z"/>
				<path fill="#E8E5D2" d="M85.5,41.5l-0.3,4.3l-5.8-2.9C81.4,42.2,83.5,41.8,85.5,41.5z"/>
				<path fill="#DAD7C5" d="M87,20.7c-1.2,0.3-2.5,0.6-3.8,1l4.1-4.3L87,20.7z"/>
				<path fill="#363D52" d="M83.3,83.9c0,0-0.1,0-0.2,0c0,0,0,0,0,0c-0.1,0-0.2-0.1-0.3-0.2c0,0,0,0,0,0c-0.1-0.1-0.1-0.2-0.1-0.4
					c0-0.1,0-0.1,0.1-0.2c0.1-0.1,0.2-0.3,0.3-0.4c0.1-0.1,0.2-0.1,0.2-0.2L83.3,83.9L83.3,83.9C83.4,83.9,83.3,83.9,83.3,83.9z"/>
				<path fill="#363D52" d="M75.9,92.2c-0.1-0.2-0.1-0.4-0.2-0.7h0c2.6-0.9,5.2-2,7.8-3.4c0,0.3,0.1,0.5,0.1,0.7
					c0.2,1,0.7,1.8,1.5,2.3v1H75.9z"/>
				<path fill="#B1C0C9" d="M73.8,44.9c-0.5,0.2-1,0.5-1.5,0.7C72.8,45.4,73.3,45.2,73.8,44.9z"/>
				<path fill="#DAD7C5" d="M86.3,30.3c-5.5,1.1-11.3,3.1-17,6l13.8-14.6c1.3-0.4,2.6-0.7,3.8-1L86.3,30.3z"/>
				<path fill="#B1C0C9" d="M63.9,50.7c-0.3,0.2-0.5,0.4-0.8,0.6C63.4,51.1,63.6,50.9,63.9,50.7z"/>
				<path fill="#363D52" d="M59.5,54.3c-0.3,0.2-0.6,0.5-0.8,0.8C58.9,54.8,59.2,54.5,59.5,54.3z"/>
				<path fill="#363D52" d="M55.5,58.3c0.7-0.8,1.5-1.6,2.3-2.4c-1.1,1.1-2.1,2.1-3,3.2C55,58.8,55.2,58.5,55.5,58.3z"/>
				<path fill="#363D52" d="M54.1,59.9c0.2-0.3,0.5-0.6,0.7-0.8c-0.5,0.5-0.9,1.1-1.3,1.6C53.7,60.4,53.9,60.2,54.1,59.9z"/>
				<path fill="#363D52" d="M53.6,83.1c0.1,0,0.2,0,0.3-0.1c0.1,0,0.1,0,0.2,0c0.1,0,0.1,0,0.1,0c0,0,0.1,0,0.1,0c0,0,0,0,0,0
					c0.1,0,0.1,0.1,0.2,0.2c0,0,0,0.1,0,0.1c0,0,0,0,0,0c0,0,0,0,0,0v0l0.1,8.5c0.2,0.1,0.4,0.2,0.6,0.2h-2.7v-7.1l0.2-0.2l0-0.7
					c0-0.1,0-0.2,0-0.2c0-0.1,0.1-0.2,0.1-0.2c0-0.1,0.1-0.1,0.1-0.2c0,0,0.1-0.1,0.1-0.1c0.1-0.1,0.2-0.2,0.4-0.3
					C53.5,83.2,53.6,83.1,53.6,83.1z"/>
				<path fill="#363D52" d="M60.7,59.1v10.8h9c1.8,0,3.1-0.2,4-0.7c1.6-0.8,2.4-2.3,2.4-4.5c0-2.4-0.8-4.1-2.3-4.9
					c-0.9-0.5-2.2-0.7-3.9-0.7H60.7z M54.1,83c0,0-0.1,0-0.2,0c-0.1,0-0.2,0-0.3,0.1c-0.1,0-0.1,0.1-0.2,0.1
					c-0.1,0.1-0.3,0.2-0.4,0.3c0,0-0.1,0.1-0.1,0.1c0,0.1-0.1,0.1-0.1,0.2c0,0.1-0.1,0.2-0.1,0.2c0,0.1,0,0.2,0,0.2l0,0.7l-0.2,0.2
					V67l6.3-4.4c0,0,0.1-0.1,0.1-0.1c0,0,0.1-0.1,0.1-0.1c0.1-0.1,0.1-0.2,0.2-0.2c0,0,0-0.1,0.1-0.2c0-0.1,0.1-0.2,0.1-0.3
					c0-0.1,0-0.2-0.1-0.3c-0.1-0.1-0.3-0.2-0.5-0.2c0,0-0.1,0-0.2,0c-0.1,0-0.1,0-0.2,0c-0.1,0-0.2,0.1-0.4,0.2l-0.9,0.6l-4.8,0.2
					V62c0.1-0.1,0.2-0.2,0.3-0.4c0.2-0.3,0.5-0.6,0.7-0.9c0.4-0.5,0.9-1.1,1.3-1.6c0.9-1.1,2-2.2,3-3.2c0.3-0.3,0.5-0.5,0.8-0.8
					c0.3-0.3,0.6-0.5,0.8-0.8c0.8-0.7,1.7-1.4,2.5-2.1h0h9.7c2.7,0.1,4.9,0.4,6.3,1c1.5,0.6,2.7,1.6,3.8,2.8c0.9,1,1.5,2.1,2,3.4
					c0.5,1.2,0.7,2.6,0.7,4.2c0,1.9-0.5,3.8-1.4,5.6c-1,1.8-2.5,3.1-4.8,3.9c1.8,0.8,3.2,1.8,3.9,3.2c0.8,1.4,1.2,3.5,1.2,6.3
					c-0.1,0-0.2,0.1-0.2,0.2c-0.1,0.1-0.2,0.2-0.3,0.4c0,0.1-0.1,0.1-0.1,0.2c0,0.2,0,0.3,0.1,0.4c0,0,0,0,0,0
					c0,0.1,0.2,0.1,0.3,0.2c0,0,0,0,0,0c0.1,0,0.1,0,0.2,0c0,0,0.1,0,0.1,0h0v1.3c0,1.3,0,2.3,0.1,3c-2.6,1.4-5.2,2.5-7.8,3.4h0
					c-0.2-0.6-0.3-1.1-0.4-1.5C75.1,89,75,87.8,75,86.6L75,82.9c-0.1-2.6-0.5-4.3-1.3-5.1s-2.4-1.3-4.8-1.3h-8.2v15.7h-5.5
					c-0.2-0.1-0.4-0.1-0.6-0.2l-0.1-8.5v0c0,0,0,0,0,0c0,0,0,0,0,0c0,0,0-0.1,0-0.1c0-0.1-0.1-0.1-0.2-0.2c0,0,0,0,0,0
					c0,0-0.1,0-0.1,0C54.1,83,54.1,83,54.1,83z"/>
				<path fill="#363D52" d="M52.5,67v-1.6l4.8-3.3l0.9-0.6c0.1-0.1,0.2-0.1,0.4-0.2c0.1,0,0.1,0,0.2,0c0.1,0,0.1,0,0.2,0
					c0.2,0,0.4,0,0.5,0.2c0.1,0.1,0.1,0.2,0.1,0.3c0,0.1,0,0.2-0.1,0.3c0,0.1,0,0.1-0.1,0.2c-0.1,0.1-0.1,0.2-0.2,0.2
					c0,0-0.1,0.1-0.1,0.1c-0.1,0-0.1,0.1-0.1,0.1L52.5,67z"/>
				<polygon fill="#363D52" points="52.5,65.5 52.5,62.4 57.2,62.2 				"/>
				<path fill="#363D52" d="M52.5,62L52.5,62c0.1-0.1,0.2-0.2,0.3-0.4C52.6,61.8,52.6,61.9,52.5,62z"/>
				<path fill="#363D52" d="M54.1,59.9c-0.2,0.3-0.4,0.5-0.6,0.8c-0.2,0.3-0.5,0.6-0.7,0.9c-0.1,0.1-0.2,0.2-0.3,0.3v-9.8H62
					c-0.9,0.7-1.7,1.4-2.5,2.1c-0.3,0.2-0.6,0.5-0.8,0.8c-0.3,0.3-0.5,0.5-0.8,0.8c-0.8,0.8-1.6,1.6-2.3,2.4
					c-0.2,0.3-0.5,0.5-0.7,0.8C54.5,59.4,54.3,59.6,54.1,59.9z"/>
				<path fill="#E8E5D2" d="M52.4,91.3l0.1,12.5c-4.7-0.7-8.9-2.4-12-5.1l5.7-6.5h0.3v-0.4l2.7-3.1C50.1,89.7,51.2,90.6,52.4,91.3z"
					/>
				<path fill="#B1C0C9" d="M52.2,62.4c0.1-0.1,0.2-0.3,0.3-0.5v0C52.4,62.2,52.3,62.3,52.2,62.4L52.2,62.4z"/>
				<path fill="#B1C0C9" d="M52.2,62.4l-5.7,0.3v-7.3C50.3,51,55,46.8,60.4,43c2.2-1.5,4.4-2.9,6.7-4.1l0,0l9.7,4.8
					c-0.4,0.1-0.7,0.3-1.1,0.4c-0.3,0.1-0.6,0.2-0.9,0.4c-0.3,0.1-0.7,0.3-1,0.4c-0.5,0.2-1,0.4-1.5,0.7c-1.4,0.7-2.7,1.4-4.1,2.2
					c-0.4,0.2-0.7,0.4-1.1,0.7c-0.7,0.5-1.4,0.9-2.2,1.4c-0.4,0.3-0.8,0.5-1.2,0.8c-0.3,0.2-0.5,0.4-0.8,0.6
					c-0.4,0.3-0.8,0.6-1.1,0.9h0h-9.5V62C52.4,62.1,52.3,62.3,52.2,62.4z"/>
				<path fill="#B1C0C9" d="M48.9,67.9c0.9-1.8,2-3.7,3.3-5.5l0.3,0v3L48.9,67.9z"/>
				<path fill="#E8E5D2" d="M52.3,85.3l-2.7,3.1c0,0-0.1-0.1-0.1-0.1l2.8-3.2h0V85.3z"/>
				<path fill="#E8E5D2" d="M49.6,88.4l2.7-3.1l0.1,6c-1.2-0.7-2.3-1.6-3.2-2.6l0,0L49.6,88.4C49.5,88.4,49.6,88.4,49.6,88.4z"/>
				<path fill="#B1C0C9" d="M48.9,67.9l-2.4,1.7v-6.9l5.7-0.3h0C50.9,64.2,49.8,66.1,48.9,67.9z"/>
				<path fill="#DAD7C5" d="M47.9,70.1c0,0.1-0.1,0.2-0.1,0.3C47.8,70.4,47.9,70.3,47.9,70.1L47.9,70.1z"/>
				<polygon fill="#363D52" points="46.5,91.8 46.5,92.2 46.1,92.2 				"/>
				<path fill="#363D52" d="M46.5,75.1v7.1c0-0.1,0-0.2-0.1-0.2c-0.1-0.3-0.1-0.7-0.2-1.1c0-0.1,0-0.2,0-0.3c0-0.1,0-0.2,0-0.3
					c0-0.3,0-0.6-0.1-0.9c0-0.3,0-0.6,0-0.9c0-0.2,0-0.4,0-0.6c0-0.2,0-0.4,0-0.6c0-0.2,0-0.4,0-0.5c0-0.2,0-0.3,0.1-0.5
					c0-0.2,0-0.3,0.1-0.5C46.4,75.5,46.4,75.3,46.5,75.1z"/>
				<path fill="#363D52" d="M38.1,76.8l8.3-5.7v2.6c0,0.1,0,0.1,0,0.1c-0.1,0.3-0.1,0.5-0.2,0.7c-0.1,0.3-0.1,0.5-0.2,0.8
					c0,0.2-0.1,0.4-0.1,0.6c0,0.1-0.1,0.3-0.1,0.5c0,0.2-0.1,0.4-0.1,0.5c0,0.2,0,0.4-0.1,0.5c0,0.2,0,0.4,0,0.6c0,0.2,0,0.4,0,0.6
					c0,0.3,0,0.6,0,0.9c0,0.3,0,0.6,0,0.9c0,0.1,0,0.2,0,0.3c0,0.1,0,0.2,0,0.3c0,0.4,0.1,0.7,0.2,1.1c0,0.2,0.1,0.4,0.1,0.6
					c0.1,0.4,0.2,0.8,0.3,1.2v7.8l-0.3,0.4h-8V76.8z"/>
				<polygon fill="#363D52" points="46.5,69.6 46.5,71.1 38.1,76.8 38.1,75.3 				"/>
				<path fill="#363D52" d="M46.5,62.7v6.9l-8.3,5.7v-7.6c0.8-1.6,1.7-3.1,2.7-4.7L46.5,62.7z"/>
				<path fill="#363D52" d="M46.5,55.4v7.3L40.8,63C42.4,60.4,44.3,57.9,46.5,55.4z"/>
				<path fill="#363D52" d="M46.5,82.3V84c-0.1-0.4-0.2-0.8-0.3-1.2c-0.1-0.2-0.1-0.4-0.1-0.6c-0.1-0.3-0.1-0.7-0.2-1.1
					c0-0.1,0-0.2,0-0.3c0-0.1,0-0.2,0-0.3c0-0.3,0-0.6,0-0.9c0-0.3,0-0.6,0-0.9c0-0.2,0-0.4,0-0.6c0-0.2,0-0.4,0-0.6
					c0-0.2,0-0.4,0.1-0.5c0-0.2,0-0.4,0.1-0.5c0-0.1,0-0.3,0.1-0.5c0-0.2,0-0.4,0.1-0.6c0-0.2,0.1-0.5,0.2-0.8
					c0-0.2,0.1-0.5,0.2-0.7c0,0,0-0.1,0-0.1v1.5c0,0.2-0.1,0.3-0.1,0.5c0,0.2-0.1,0.3-0.1,0.5c0,0.2-0.1,0.4-0.1,0.5
					c0,0.2,0,0.4,0,0.5c0,0.2,0,0.4,0,0.6c0,0.2,0,0.4,0,0.6c0,0.3,0,0.6,0,0.9c0,0.3,0,0.6,0.1,0.9c0,0.1,0,0.2,0,0.3
					c0,0.1,0,0.2,0,0.3c0,0.4,0.1,0.7,0.2,1.1C46.4,82.1,46.4,82.2,46.5,82.3L46.5,82.3z"/>
				<path fill="#363D52" d="M46.5,55.4c-2.2,2.5-4,5-5.7,7.6c-1,1.6-1.9,3.1-2.7,4.7v-3.1c0.3-0.5,0.6-1,0.9-1.5
					c2.1-3.3,4.5-6.5,7.4-9.6V55.4z"/>
				<path fill="#DAD7C5" d="M39.5,100l-8.6,9.9c-2.5-1.7-4.6-3.8-6.3-6.4C18.3,94.3,19,81.7,25,68.8l7.4,11.1c0,0,0,0,0,0
					c-0.8,5.9,0.1,11.4,3.2,15.9C36.8,97.4,38,98.8,39.5,100z"/>
				<path fill="#363D52" d="M38.1,63.1v-11h8.3v1.3c-2.9,3.1-5.3,6.4-7.4,9.6L38.1,63.1z"/>
				<path fill="#363D52" d="M38.1,64.6v-1.5l0.9,0C38.7,63.6,38.4,64.1,38.1,64.6z"/>
				<path fill="#B1C0C9" d="M38.1,67.7v7.6l-3.5,2.4C35.3,74.4,36.5,71.1,38.1,67.7z"/>
				<path fill="#809EAD" d="M38.1,63.1l-10.3,0.5c6-10.2,15.3-20.2,27.2-28.4c8.4-5.8,17.1-10,25.6-12.7l-14.2,15
					c-0.2,0.2-0.3,0.4-0.3,0.5c-2.1,1.2-4.3,2.5-6.4,4c-5,3.5-9.4,7.3-13.2,11.4v-1.3h-8.3V63.1z"/>
				<path fill="#E8E5D2" d="M37,95c-2.9-4.3-3.8-9.6-3-15.3l4.2-2.9v15.4h8l-5.7,6.5C39.1,97.7,38,96.4,37,95z"/>
				<path fill="#DAD7C5" d="M33.5,111.5l-6,2.2l3.4-3.9C31.7,110.5,32.6,111,33.5,111.5z"/>
				<path fill="#DAD7C5" d="M30.9,109.9l8.6-9.9c3.1,2.5,7.1,4.2,11.6,5l-17.5,6.5C32.6,111,31.7,110.5,30.9,109.9z"/>
				<path fill="#809EAD" d="M27.8,63.6c-0.6,1-1.2,2.1-1.7,3.1l-2-3L27.8,63.6z"/>
				<path fill="#809EAD" d="M38.1,64.6c-2.4,4.2-4.2,8.4-5.1,12.5l-6.9-10.4c0.5-1.1,1.1-2.1,1.7-3.1l10.3-0.5V64.6z"/>
			</g>
			<g>
			</g>
		</g>
	</g>
	<rect x="134.8" y="53.8" fill="none" width="73.7" height="41.8"/>
	<text transform="matrix(1 0 0 1 134.8247 62.7593)"><tspan x="0" y="0" fill="#363D52" font-family="'Helvetica'" font-size="12.5px">Integrated </tspan><tspan x="0" y="15" fill="#363D52" font-family="'Helvetica'" font-size="12.5px">Reservoir </tspan><tspan x="0" y="30" fill="#363D52" font-family="'Helvetica'" font-size="12.5px">Management</tspan></text>
</g>
</svg>
