<?xml version="1.0" encoding="utf-8"?>
<!-- Generator: Adobe Illustrator 19.0.1, SVG Export Plug-In . SVG Version: 6.00 Build 0)  -->
<!DOCTYPE svg PUBLIC "-//W3C//DTD SVG 1.1//EN" "http://www.w3.org/Graphics/SVG/1.1/DTD/svg11.dtd">
<svg version="1.1" id="Layer_1" xmlns="http://www.w3.org/2000/svg" xmlns:xlink="http://www.w3.org/1999/xlink" x="0px" y="0px"
	 width="188px" height="100px" viewBox="0 0 188 100" enable-background="new 0 0 188 100" xml:space="preserve">
<g>
	<g>
		<path fill="#B53446" d="M9.2,30.6c0-16.5,0-19.4-0.2-22.8c-0.2-3.6-1.1-5.3-4.5-6C3.6,1.6,1.8,1.5,0.8,1.5C0.4,1.5,0,1.3,0,0.8
			C0,0.2,0.5,0,1.7,0c4.7,0,11.4,0.3,11.9,0.3c1.2,0,9.2-0.3,12.4-0.3c6.6,0,13.7,0.6,19.3,4.6c2.6,1.9,7.3,7.1,7.3,14.3
			c0,7.8-3.3,15.6-12.8,24.4c8.7,11.1,15.8,20.5,21.9,27c5.7,6,10.2,7.2,12.9,7.6c2,0.3,3.5,0.3,4.1,0.3c0.5,0,0.9,0.3,0.9,0.6
			c0,0.6-0.6,0.8-2.5,0.8h-7.5c-5.9,0-8.5-0.5-11.3-2c-4.5-2.4-8.2-7.6-14.2-15.5c-4.4-5.8-9.4-12.9-11.5-15.6
			C32.3,46.2,32,46,31.3,46l-13-0.2c-0.5,0-0.7,0.3-0.7,0.8v2.5c0,10.1,0,18.5,0.5,22.9c0.3,3.1,0.9,5.4,4.1,5.8
			c1.5,0.2,3.8,0.4,4.7,0.4c0.6,0,0.8,0.3,0.8,0.6c0,0.5-0.5,0.8-1.7,0.8c-5.8,0-12.4-0.3-13-0.3c-0.1,0-6.8,0.3-9.9,0.3
			c-1.2,0-1.7-0.2-1.7-0.8c0-0.3,0.2-0.6,0.8-0.6c1,0,2.2-0.2,3.2-0.4c2.1-0.4,2.6-2.7,3.1-5.8c0.5-4.4,0.5-12.8,0.5-22.9V30.6z
			 M17.6,39.8c0,0.5,0.2,0.9,0.7,1.3c1.6,1,6.4,1.7,11.1,1.7c2.5,0,5.5-0.3,7.9-2c3.7-2.5,6.4-8.2,6.4-16.2c0-13.2-7-21.1-18.3-21.1
			c-3.2,0-6,0.3-7.1,0.6c-0.5,0.2-0.8,0.6-0.8,1.3V39.8z"/>
		<path fill="#B53446" d="M139.8,52.9c0-5.6-1-7.9-2.4-10.9c-0.7-1.7-14.7-24.5-18.3-29.9c-2.6-3.8-5.2-6.4-7.1-7.7
			c-1.6-1-3.5-1.7-4.5-1.7c-0.5,0-1-0.2-1-0.7c0-0.4,0.4-0.7,1.4-0.7c2,0,9.8,0.3,10.3,0.3c0.7,0,4.7-0.3,8.7-0.3
			c1.1,0,1.4,0.3,1.4,0.7s-0.6,0.5-1.6,0.9c-0.8,0.4-1.4,1-1.4,1.9c0,1.2,0.5,2.5,1.4,4c1.7,3,17.3,29.8,19.2,32.8
			c2-4.4,15.2-27.1,17.3-30.5c1.4-2.2,1.8-3.9,1.8-5.3c0-1.5-0.4-2.6-1.7-2.9c-0.9-0.3-1.6-0.5-1.6-1c0-0.4,0.6-0.6,1.7-0.6
			c2.7,0,6,0.3,6.9,0.3c0.6,0,8.1-0.3,10.1-0.3c0.7,0,1.4,0.2,1.4,0.6c0,0.5-0.5,0.8-1.4,0.8c-1.1,0-3.1,0.4-4.8,1.5
			c-2.1,1.2-3.2,2.5-5.5,5.3c-3.4,4.2-18,28.5-19.9,33c-1.6,3.7-1.6,7-1.6,10.4v8.9c0,1.7,0,6,0.3,10.4c0.2,3,1.1,5.3,4.3,5.7
			c1.5,0.2,3.7,0.4,4.7,0.4c0.6,0,0.8,0.3,0.8,0.6c0,0.5-0.5,0.8-1.7,0.8c-5.7,0-12.3-0.3-12.8-0.3c-0.5,0-7.1,0.3-10.2,0.3
			c-1.1,0-1.7-0.2-1.7-0.8c0-0.3,0.2-0.6,0.8-0.6c0.9,0,2.2-0.2,3.1-0.4c2.1-0.4,3-2.7,3.2-5.7c0.3-4.4,0.3-8.7,0.3-10.4V52.9z"/>
		<path fill="#B53446" d="M185.8,78.3c-0.6,0-2.8-0.2-4.3-0.4c-3.1-0.4-3.7-2.7-4.1-5.7c-0.5-4.4-0.5-12.6-0.5-22.5V31.4
			c0-15.5,0.4-22.3,0.5-25.5c-3.8,1-7.2,6.6-9.3,9.7c0,3.2,0,7.9,0,15.7v18.3c0,10,0,18.2-0.5,22.5c-0.4,3-1,5.4-3.1,5.8
			c-0.9,0.2-2.1,0.3-2.7,0.3c-0.9,0-1.1,0.3-1.1,0.6c0,0.6,0.5,0.8,1.7,0.8c3.1,0,9.7-0.3,10.2-0.3s7.2,0.3,12.9,0.3
			c1.1,0,1.6-0.3,1.6-0.8C187,78.6,186.7,78.3,185.8,78.3z"/>
	</g>
	<g>
		<path fill="#B53446" d="M7.7,85.7c3.7,0,6.7,3,6.7,6.8c0,3.7-3,6.7-6.7,6.7S1,96.2,1,92.4C1,88.7,3.9,85.7,7.7,85.7z M7.7,97.9
			c3,0,5.4-2.4,5.4-5.4S10.7,87,7.7,87c-3,0-5.4,2.5-5.4,5.5S4.7,97.9,7.7,97.9z"/>
		<path fill="#B53446" d="M17.8,86.2c0-0.2,0.2-0.4,0.4-0.4h0.7c0.2,0,0.4,0.2,0.4,0.4v12.4c0,0.2-0.2,0.4-0.4,0.4h-0.7
			c-0.2,0-0.4-0.2-0.4-0.4V86.2z"/>
		<path fill="#B53446" d="M23.6,86.2c0-0.2,0.1-0.4,0.4-0.4h0.7c0.2,0,0.4,0.2,0.4,0.4v11.5h5.4c0.2,0,0.4,0.2,0.4,0.4v0.5
			c0,0.2-0.1,0.4-0.4,0.4h-6.5c-0.2,0-0.4-0.2-0.4-0.4V86.2z"/>
		<path fill="#B53446" d="M40.2,92L40.2,92l-0.4-0.5c-0.7-0.8-1.3-1.6-1.3-2.7c0-1.4,1-3,3.3-3c2,0,3.2,1.3,3.2,2.9
			c0,1.7-1.7,2.9-2.8,3.6l3.1,3.1c0.5-1,0.7-2.1,0.7-3.3c0-0.4,0.1-0.4,0.4-0.4h0.4c0.4,0,0.4,0.3,0.4,0.4c0,1.4-0.4,3-1.1,4.2
			l1.8,1.8c0.2,0.2,0.4,0.4,0,0.9L47.7,99c-0.2,0.2-0.5,0.2-0.8-0.1l-1.6-1.6c-1,1.1-2.4,1.9-4.1,1.9c-2.4,0-3.6-1.6-3.6-3.4
			C37.6,93.7,39.2,92.6,40.2,92z M41.3,98c1.3,0,2.4-0.6,3.2-1.6L41,92.8c-0.9,0.5-2.1,1.5-2.1,3C38.9,97.1,40,98,41.3,98z
			 M43.6,88.6c0-0.9-0.7-1.8-2-1.8c-1.2,0-1.9,0.9-1.9,2c0,0.8,0.5,1.4,1.2,2.1l0.4,0.4C42.1,90.8,43.6,90,43.6,88.6z"/>
		<path fill="#B53446" d="M61.4,85.7c1.9,0,3.3,0.7,4.5,1.7c0.1,0.2,0.2,0.4,0,0.5c-0.2,0.2-0.4,0.4-0.5,0.5c-0.2,0.2-0.3,0.2-0.5,0
			c-1-0.8-2.3-1.5-3.6-1.5c-3,0-5.2,2.5-5.2,5.4c0,2.9,2.2,5.4,5.2,5.4c2.1,0,3.4-0.8,3.4-0.8v-2.6h-2.2c-0.2,0-0.4-0.1-0.4-0.3
			v-0.7c0-0.2,0.1-0.4,0.4-0.4h3.2c0.2,0,0.3,0.2,0.3,0.4v4.3c0,0.1-0.1,0.2-0.1,0.3c0,0-1.9,1.2-4.6,1.2c-3.7,0-6.8-3-6.8-6.7
			C54.7,88.7,57.7,85.7,61.4,85.7z"/>
		<path fill="#B53446" d="M68,98.5l5.7-12.6c0.1-0.1,0.1-0.2,0.3-0.2h0.2c0.2,0,0.3,0.1,0.3,0.2l5.7,12.6c0.1,0.2,0,0.5-0.3,0.5
			h-0.7c-0.2,0-0.3-0.1-0.3-0.2l-1.4-3.1h-6.7l-1.4,3.1c0,0.1-0.1,0.2-0.3,0.2h-0.7C68.1,99,67.9,98.7,68,98.5z M76.9,94.5
			c-0.9-2-1.8-4.1-2.7-6.1h-0.1l-2.7,6.1H76.9z"/>
		<path fill="#B53446" d="M81.9,97c0.1-0.1,0.2-0.2,0.3-0.4c0.2-0.2,0.4-0.4,0.7-0.2c0.1,0.1,1.5,1.4,3.2,1.4c1.5,0,2.5-1,2.5-2.1
			c0-1.3-1.1-2.1-3.3-3C83.2,92,82,91.2,82,89c0-1.3,1-3.3,4-3.3c1.8,0,3.2,1,3.2,1c0.1,0.1,0.3,0.3,0.1,0.6
			c-0.1,0.1-0.1,0.2-0.2,0.4c-0.2,0.3-0.4,0.3-0.7,0.2c-0.1-0.1-1.3-0.9-2.5-0.9c-2,0-2.6,1.3-2.6,2.1c0,1.3,1,2,2.5,2.6
			c2.5,1,4.2,2,4.2,4.2c0,1.9-1.9,3.4-4,3.4c-2.2,0-3.7-1.3-4-1.5C81.9,97.5,81.7,97.4,81.9,97z"/>
		<path fill="#B53446" d="M97.1,97c0.1-0.1,0.2-0.2,0.3-0.4c0.2-0.2,0.4-0.4,0.7-0.2c0.1,0.1,1.5,1.4,3.2,1.4c1.5,0,2.5-1,2.5-2.1
			c0-1.3-1.1-2.1-3.3-3c-2.1-0.9-3.3-1.7-3.3-3.9c0-1.3,1-3.3,4-3.3c1.8,0,3.2,1,3.2,1c0.1,0.1,0.3,0.3,0.1,0.6
			c-0.1,0.1-0.1,0.2-0.2,0.4c-0.2,0.3-0.4,0.3-0.7,0.2c-0.1-0.1-1.3-0.9-2.5-0.9c-2,0-2.6,1.3-2.6,2.1c0,1.3,1,2,2.5,2.6
			c2.5,1,4.2,2,4.2,4.2c0,1.9-1.9,3.4-4,3.4c-2.2,0-3.7-1.3-4-1.5C97.1,97.5,96.9,97.4,97.1,97z"/>
		<path fill="#B53446" d="M108.5,97c0.6,0,1.1,0.5,1.1,1.1c0,0.6-0.5,1.1-1.1,1.1c-0.6,0-1.1-0.5-1.1-1.1
			C107.5,97.5,108,97,108.5,97z"/>
		<path fill="#B53446" d="M111.3,98.5l5.7-12.6c0.1-0.1,0.2-0.2,0.3-0.2h0.2c0.2,0,0.3,0.1,0.3,0.2l5.7,12.6c0.1,0.2,0,0.5-0.3,0.5
			h-0.8c-0.2,0-0.3-0.1-0.3-0.2l-1.4-3.1H114l-1.4,3.1c0,0.1-0.1,0.2-0.3,0.2h-0.7C111.3,99,111.2,98.7,111.3,98.5z M120.2,94.5
			c-0.9-2-1.8-4.1-2.7-6.1h-0.2l-2.7,6.1H120.2z"/>
		<path fill="#B53446" d="M130.7,86.2c0-0.2,0.2-0.4,0.3-0.4h4.2c3.6,0,6.6,2.9,6.6,6.5c0,3.6-3,6.6-6.6,6.6H131
			c-0.2,0-0.3-0.2-0.3-0.4V86.2z M134.9,97.7c3.1,0,5.3-2.2,5.3-5.3c0-3.1-2.2-5.3-5.3-5.3h-2.8v10.5H134.9z"/>
		<path fill="#B53446" d="M145.2,86.2c0-0.2,0.1-0.4,0.4-0.4h7.4c0.2,0,0.4,0.2,0.4,0.4v0.5c0,0.2-0.2,0.4-0.4,0.4h-6.3v4.6h5.4
			c0.2,0,0.4,0.2,0.4,0.4v0.5c0,0.2-0.2,0.4-0.4,0.4h-5.4v4.8h6.3c0.2,0,0.4,0.2,0.4,0.4v0.5c0,0.2-0.2,0.4-0.4,0.4h-7.4
			c-0.2,0-0.4-0.2-0.4-0.4V86.2z"/>
		<path fill="#B53446" d="M167.2,85.7c1.9,0,3.3,0.7,4.5,1.7c0.2,0.2,0.2,0.4,0,0.5l-0.5,0.5c-0.2,0.2-0.3,0.2-0.5,0
			c-1-0.8-2.3-1.4-3.6-1.4c-3,0-5.2,2.5-5.2,5.4c0,2.9,2.3,5.4,5.2,5.4c1.6,0,2.6-0.7,3.6-1.4c0.2-0.2,0.3-0.1,0.4-0.1l0.6,0.5
			c0.1,0.1,0.1,0.4,0,0.5c-1.3,1.2-2.9,1.8-4.6,1.8c-3.7,0-6.8-3-6.8-6.7C160.5,88.7,163.5,85.7,167.2,85.7z"/>
		<path fill="#B53446" d="M173.4,86.4c-0.1-0.2,0-0.5,0.3-0.5h0.8c0.2,0,0.3,0.1,0.3,0.2l4.7,10.5h0.1l4.7-10.5
			c0-0.1,0.2-0.2,0.3-0.2h0.8c0.3,0,0.4,0.2,0.3,0.5L179.9,99c-0.1,0.1-0.2,0.2-0.3,0.2h-0.2c-0.1,0-0.3-0.1-0.3-0.2L173.4,86.4z"/>
	</g>
	<g>
		<path fill="#B53446" d="M54.3,38.7c-0.1,0.3-0.1,0.8-0.4,1.1c-0.3,0.2-0.5,0.1-0.7-0.1c-0.1-0.2-0.2-0.4-0.2-0.7
			c-0.6-6.4,0.7-20.6,11.7-30.1c11.1-9.6,27-8.9,31.8-7.6c0.3,0.1,0.7,0.1,0.8,0.3c0.2,0.2,0.1,0.5-0.1,0.7
			c-0.2,0.1-0.5,0.2-0.8,0.2c-4.7,0-17.3,2.5-26.8,10.7C60,21.6,56,30.2,54.3,38.7z"/>
		<path fill="#B53446" d="M128.6,41.4c0.1-0.3,0.1-0.8,0.4-1.1c0.3-0.2,0.5-0.1,0.7,0.1c0.1,0.2,0.2,0.4,0.2,0.7
			c0.6,6.4-0.7,20.6-11.8,30.1c-11.1,9.6-27,8.9-31.8,7.6c-0.3-0.1-0.7-0.1-0.8-0.3s-0.1-0.5,0.1-0.7c0.2-0.1,0.5-0.2,0.8-0.2
			c4.7,0,17.3-2.5,26.8-10.7C123,58.5,126.9,49.9,128.6,41.4z"/>
	</g>
	<path fill="#FDC113" d="M83.6,77.3c-10-3.4-14.3-11.9-11.6-22.8c1.8-7.5,5.6-14,10-20.3c2.4-3.4,4.7-6.8,6.8-10.4
		c2.8-4.7,5.1-9.6,4.1-15.4c3.5,4.5,5.9,9.4,6.6,15c0.9,7.4-1.8,13.6-6,19.5c-2.6,3.6-5,7.4-7,11.3C82.8,61.4,81,69,83.6,77.3z"/>
	<path fill="#FDC113" d="M92.1,74.3c-4.4-2.3-5.9-7-4.2-12.7c1.2-3.9,3.3-7.2,5.6-10.3c1.3-1.7,2.5-3.4,3.6-5.2
		c1.5-2.4,2.8-4.9,2.7-8c1.4,2.5,2.3,5.3,2.3,8.3c0,4-1.5,7.2-3.7,10.1c-1.4,1.8-2.7,3.7-3.8,5.7C92.6,65.8,91.4,69.7,92.1,74.3z"/>
</g>
</svg>
