<?xml version="1.0" encoding="utf-8"?>
<!-- Generator: Adobe Illustrator 19.0.1, SVG Export Plug-In . SVG Version: 6.00 Build 0)  -->
<!DOCTYPE svg PUBLIC "-//W3C//DTD SVG 1.1//EN" "http://www.w3.org/Graphics/SVG/1.1/DTD/svg11.dtd">
<svg version="1.1" id="Layer_1" xmlns="http://www.w3.org/2000/svg" xmlns:xlink="http://www.w3.org/1999/xlink" x="0px" y="0px"
	 width="200px" height="100px" viewBox="90 -35 200 100" style="enable-background:new 90 -35 200 100;" xml:space="preserve">
<style type="text/css">
	.st0{fill:#4E4D4E;}
	.st1{fill:#F7CC1B;}
	.st2{fill:#119A48;}
	.st3{fill:none;}
	.st4{enable-background:new    ;}
	.st5{fill:#010101;}
</style>
<g>
	<path class="st0" d="M122.8,20.7c0,0,36.2-14.5,53.3-17.2c10.5-1.6,20.1-0.4,26.5,1c7,1.5,52.7,15.3,52.7,15.3
		c-47.1-16.1-43.5-18-56.5-21.2c-9.2-2.2-14.7-2.2-27.6,1.4c-11,3.1-15.4,5.3-15.4,5.3L122.8,20.7z"/>
	<path class="st1" d="M121.2,20.7c0,0,54.9-35.6,61.4-40.6c4.9-3.8,9.7-3.2,13.7,0.5c0,0,35.8,30.3,60.2,38.2
		c-30.3-9.8-27.3-8.4-59.1-23.9c-10.6-5.2-17.8-0.1-24.9,2.1L121.2,20.7z"/>
	<path class="st2" d="M160.4-3.5c0,0,12.4-8.9,16.5-10.5c4.4-1.7,9.7-1.2,14,4.6c2.2,2.9,6.3,13.4,6.3,13.4S190.8-9.9,181-10.6
		C175-11.1,171.2-8.6,160.4-3.5z"/>
</g>
<rect x="136.1" y="15.7" class="st3" width="109" height="30.3"/>
<g class="st4">
	<path class="st5" d="M147.9,27.6c-0.3,0.2-0.6,0.4-1,0.5c-0.4,0.1-0.9,0.1-1.5,0.1h-5.1c-1,0-1.8-0.2-2.4-0.7c-0.7-0.5-1-1.3-1-2.3
		c0-0.1,0-0.1,0.1-0.1h1c0.1,0,0.1,0,0.1,0.1c0,0.3,0.1,0.6,0.2,0.8c0.1,0.2,0.3,0.4,0.5,0.5c0.2,0.1,0.4,0.2,0.7,0.2s0.6,0.1,1,0.1
		h4.7c0.4,0,0.7,0,0.9-0.1c0.3-0.1,0.5-0.1,0.6-0.2c0.2-0.1,0.4-0.3,0.5-0.5c0.1-0.2,0.1-0.5,0.1-0.8c0-0.7-0.3-1.1-0.9-1.4
		c-0.2-0.1-0.6-0.2-1-0.2c-0.4,0-0.9-0.1-1.4-0.1c-0.1,0-0.3,0-0.4,0c-0.1,0-0.3,0-0.5,0h-0.3h-0.3c0,0,0,0-0.1,0c0,0-0.1,0-0.1,0
		h-0.2c-0.2,0-0.4,0-0.6,0s-0.3,0-0.4,0c-1.4,0-2.4-0.2-3.1-0.5c-0.9-0.4-1.4-1.2-1.4-2.4c0-1.9,1.1-2.8,3.2-2.8h5.2
		c2.3,0,3.5,1,3.5,3c0,0.1,0,0.1-0.1,0.1h-1.1c-0.1,0-0.1,0-0.1-0.1c0-0.3-0.1-0.6-0.2-0.8c-0.1-0.2-0.3-0.4-0.5-0.5
		c-0.4-0.2-0.9-0.3-1.7-0.3h-5c-0.3,0-0.6,0-0.8,0.1s-0.4,0.1-0.5,0.2c-0.3,0.2-0.5,0.6-0.5,1.2c0,0.6,0.3,1,0.9,1.3
		c0.5,0.2,1.3,0.3,2.3,0.3c0.1,0,0.3,0,0.5,0c0.2,0,0.5,0,0.8,0c0,0,0.1,0,0.1,0s0.1,0,0.1,0h0.2c0.2,0,0.4,0,0.5,0
		c0.2,0,0.3,0,0.4,0c0.7,0,1.4,0,1.9,0.1c0.5,0.1,1,0.2,1.4,0.4c1,0.5,1.5,1.3,1.5,2.5C148.8,26.3,148.5,27.1,147.9,27.6z"/>
	<path class="st5" d="M157,23.8h-5.6V28c0,0.1-0.1,0.1-0.2,0.1h-1.1c-0.1,0-0.1,0-0.1-0.1V17.9c0-0.1,0-0.2,0.1-0.2h6.9
		c0.6,0,1.1,0.1,1.6,0.2s0.8,0.3,1.1,0.6c0.3,0.3,0.4,0.6,0.6,1c0.1,0.4,0.2,1,0.2,1.6C160.5,22.9,159.3,23.8,157,23.8z M159.1,20.5
		c0-0.3,0-0.5-0.1-0.7c-0.1-0.2-0.3-0.3-0.5-0.5c-0.2-0.1-0.4-0.1-0.6-0.2c-0.2,0-0.5-0.1-0.9-0.1h-5.6v3.3h5.6
		c0.7,0,1.2-0.1,1.5-0.2v0c0.2-0.1,0.4-0.3,0.5-0.5c0.1-0.2,0.1-0.5,0.1-0.7V20.5z"/>
	<path class="st5" d="M161.2,28.2c-0.1,0-0.1,0-0.1-0.1V17.9c0-0.1,0-0.2,0.1-0.2h8.8c0.1,0,0.1,0.1,0.1,0.2v1c0,0.1,0,0.2-0.1,0.2
		h-7.6v3h7.3c0.1,0,0.1,0.1,0.1,0.2v1c0,0.1,0,0.2-0.1,0.2h-7.3v3.3h7.6c0.1,0,0.1,0,0.1,0.1v1c0,0.1,0,0.1-0.1,0.1H161.2z"/>
	<path class="st5" d="M182.7,25.1C182.7,25.1,182.7,25.1,182.7,25.1c0,1.2-0.3,2-1,2.5c-0.6,0.4-1.5,0.6-2.6,0.6h-3.7
		c-0.7,0-1.3,0-1.9-0.1c-0.5-0.1-0.9-0.2-1.3-0.5c-0.3-0.2-0.6-0.5-0.8-0.8c-0.2-0.3-0.3-0.7-0.4-1.1c-0.1-0.5-0.1-1.6-0.1-3.2
		c0-1.9,0.3-3.1,1-3.8h0c0.7-0.7,1.9-1,3.8-1h3.4c1.2,0,2.1,0.2,2.8,0.7c0.6,0.5,0.9,1.2,0.9,2.2v0c0,0.1,0,0.1-0.1,0.1h-1
		c-0.1,0-0.1,0-0.1-0.1v0c0-1.1-0.8-1.6-2.4-1.6h-3.5c-0.6,0-1.1,0-1.5,0.1c-0.4,0.1-0.7,0.2-0.9,0.3c-0.4,0.3-0.7,0.7-0.8,1.4
		c0,0.2-0.1,0.5-0.1,0.9c0,0.4,0,1,0,1.6c0,0.7,0,1.3,0.1,1.8c0.1,0.5,0.2,0.8,0.4,1c0.4,0.4,1.2,0.7,2.6,0.7h3.8
		c0.8,0,1.3-0.1,1.7-0.3c0.4-0.2,0.7-0.7,0.7-1.3v0c0-0.1,0-0.1,0.1-0.1h1L182.7,25.1C182.6,25,182.6,25,182.7,25.1L182.7,25.1z"/>
	<path class="st5" d="M189.4,19.1V28c0,0.1,0,0.1-0.1,0.1h-1c-0.1,0-0.1,0-0.1-0.1v-8.9h-4.7c-0.1,0-0.2-0.1-0.2-0.2v-1
		c0-0.1,0.1-0.2,0.2-0.2h10.7c0.1,0,0.2,0.1,0.2,0.2v1c0,0.1-0.1,0.2-0.2,0.2H189.4z"/>
	<path class="st5" d="M205.1,28.2c-0.1,0-0.1,0-0.1-0.1c0-0.3,0-0.7,0-1.3c0-0.3,0-0.5,0-0.7c0-0.2,0-0.3,0-0.5c0-0.4,0-0.7-0.1-0.9
		c-0.1-0.2-0.2-0.4-0.3-0.6c-0.2-0.2-0.4-0.3-0.7-0.4c-0.3-0.1-0.6-0.1-1.1-0.1h-6.7V28c0,0.1,0,0.1-0.1,0.1h-1
		c-0.1,0-0.1,0-0.1-0.1V17.9c0-0.1,0-0.2,0.1-0.2h7.3c2.3,0,3.5,0.9,3.5,2.8c0,0.5-0.1,0.9-0.2,1.2c-0.1,0.3-0.3,0.6-0.6,0.7
		c0.4,0.2,0.7,0.5,0.9,1c0.1,0.2,0.2,0.4,0.2,0.7c0,0.3,0.1,0.6,0.1,0.9v3c0,0.1,0,0.1-0.1,0.1H205.1z M202.6,19.2h-6.4v2.9h6.3
		c1.3,0,2-0.5,2-1.5C204.5,19.7,203.9,19.2,202.6,19.2z"/>
	<path class="st5" d="M218.9,26.5c-0.3,0.7-0.8,1.1-1.6,1.4c0,0,0,0,0,0c-0.3,0.1-0.7,0.2-1.2,0.2c-0.5,0.1-1.1,0.1-1.8,0.1h-1.5
		c-0.7,0-1.3,0-1.8-0.1s-0.9-0.1-1.2-0.2c0,0,0,0,0,0c-0.4-0.1-0.7-0.3-1-0.5c-0.3-0.2-0.5-0.5-0.6-0.8c-0.2-0.3-0.3-0.7-0.3-1.3
		s-0.1-1.1-0.1-1.8v-5.5c0-0.1,0-0.2,0.1-0.2h1c0.1,0,0.1,0.1,0.1,0.2v5.5c0,1.1,0.1,1.9,0.3,2.4c0.2,0.4,0.6,0.7,1.1,0.8
		c0.4,0.1,1.3,0.2,2.5,0.2h1.5c1.2,0,2-0.1,2.5-0.2c0.5-0.1,0.9-0.4,1-0.8c0.1-0.2,0.2-0.5,0.2-0.9c0-0.4,0.1-0.9,0.1-1.5v-5.5
		c0-0.1,0.1-0.2,0.2-0.2h1c0.1,0,0.1,0.1,0.1,0.2v5.5C219.4,24.8,219.2,25.8,218.9,26.5z"/>
	<path class="st5" d="M234.3,28.2c-0.1,0-0.1,0-0.1-0.1v-9.1h-0.3l-5.3,9.2c0,0-0.1,0-0.1,0h-0.7c0,0,0,0-0.1,0l-5.3-9.3H222V28
		c0,0.1,0,0.1-0.1,0.1h-1.1c-0.1,0-0.1,0-0.1-0.1V17.9c0-0.1,0-0.2,0.1-0.2h2.4c0,0,0.1,0,0.1,0l4.8,8.5l5-8.5c0,0,0.1,0,0.1,0h2.2
		c0.1,0,0.1,0.1,0.1,0.2V28c0,0.1,0,0.1-0.1,0.1H234.3z"/>
</g>
<g class="st4">
	<path class="st5" d="M139.5,33.6c-0.1,0.1-0.2,0.1-0.3,0.1s-0.3,0-0.4,0h-1.5c-0.3,0-0.5-0.1-0.7-0.2c-0.2-0.2-0.3-0.4-0.3-0.7
		c0,0,0,0,0,0h0.3c0,0,0,0,0,0c0,0.1,0,0.2,0.1,0.2c0,0.1,0.1,0.1,0.2,0.1c0,0,0.1,0,0.2,0.1s0.2,0,0.3,0h1.3c0.1,0,0.2,0,0.3,0
		c0.1,0,0.1,0,0.2-0.1c0.1,0,0.1-0.1,0.1-0.2c0-0.1,0-0.1,0-0.2c0-0.2-0.1-0.3-0.3-0.4c-0.1,0-0.2-0.1-0.3-0.1c-0.1,0-0.2,0-0.4,0
		c0,0-0.1,0-0.1,0c0,0-0.1,0-0.1,0h-0.1H138c0,0,0,0,0,0c0,0,0,0,0,0h-0.1c-0.1,0-0.1,0-0.2,0c-0.1,0-0.1,0-0.1,0
		c-0.4,0-0.7,0-0.9-0.1c-0.3-0.1-0.4-0.4-0.4-0.7c0-0.5,0.3-0.8,0.9-0.8h1.5c0.7,0,1,0.3,1,0.9c0,0,0,0,0,0h-0.3c0,0,0,0,0,0
		c0-0.1,0-0.2-0.1-0.2c0-0.1-0.1-0.1-0.2-0.2c-0.1-0.1-0.3-0.1-0.5-0.1h-1.4c-0.1,0-0.2,0-0.2,0s-0.1,0-0.2,0.1
		c-0.1,0.1-0.1,0.2-0.1,0.3s0.1,0.3,0.3,0.4c0.1,0.1,0.4,0.1,0.7,0.1c0,0,0.1,0,0.1,0c0.1,0,0.1,0,0.2,0c0,0,0,0,0,0s0,0,0,0h0.1
		c0.1,0,0.1,0,0.1,0c0,0,0.1,0,0.1,0c0.2,0,0.4,0,0.6,0c0.2,0,0.3,0.1,0.4,0.1c0.3,0.1,0.4,0.4,0.4,0.7
		C139.8,33.2,139.7,33.4,139.5,33.6z"/>
	<path class="st5" d="M140.1,33.8C140.1,33.8,140.1,33.7,140.1,33.8l0-2.9c0,0,0,0,0,0h2.5c0,0,0,0,0,0v0.3c0,0,0,0,0,0h-2.2V32h2.1
		c0,0,0,0,0,0v0.3c0,0,0,0,0,0h-2.1v0.9h2.2c0,0,0,0,0,0v0.3c0,0,0,0,0,0H140.1z"/>
	<path class="st5" d="M145.8,33.8C145.8,33.8,145.8,33.7,145.8,33.8c0-0.1,0-0.2,0-0.4c0-0.1,0-0.1,0-0.2c0-0.1,0-0.1,0-0.1
		c0-0.1,0-0.2,0-0.3c0-0.1,0-0.1-0.1-0.2c0-0.1-0.1-0.1-0.2-0.1c-0.1,0-0.2,0-0.3,0h-1.9v1.3c0,0,0,0,0,0h-0.3c0,0,0,0,0,0v-2.9
		c0,0,0,0,0,0h2.1c0.7,0,1,0.3,1,0.8c0,0.1,0,0.2-0.1,0.3c0,0.1-0.1,0.2-0.2,0.2c0.1,0.1,0.2,0.1,0.3,0.3c0,0.1,0,0.1,0.1,0.2
		c0,0.1,0,0.2,0,0.2v0.8c0,0,0,0,0,0H145.8z M145.1,31.2h-1.8V32h1.8c0.4,0,0.6-0.1,0.6-0.4C145.6,31.3,145.5,31.2,145.1,31.2z"/>
	<path class="st5" d="M148.3,33.7C148.3,33.8,148.3,33.8,148.3,33.7l-0.4,0c0,0,0,0,0,0l-1.5-2.9v0c0,0,0,0,0,0c0,0,0,0,0,0
		c0,0,0,0,0,0h0.3c0,0,0,0,0,0c0,0,0,0,0,0l1.3,2.5h0l1.3-2.5c0,0,0,0,0,0h0.3c0,0,0,0,0,0c0,0,0,0,0,0c0,0,0,0,0,0v0L148.3,33.7z
		 M146.8,30.8L146.8,30.8L146.8,30.8L146.8,30.8z"/>
	<path class="st5" d="M150,33.8C150,33.8,150,33.7,150,33.8l0-2.9c0,0,0,0,0,0h0.2c0,0,0,0,0,0v2.9c0,0,0,0,0,0H150z"/>
	<path class="st5" d="M154,32.9C154,32.9,154,32.9,154,32.9c0,0.3-0.1,0.6-0.3,0.7c-0.2,0.1-0.4,0.2-0.8,0.2h-1.1
		c-0.2,0-0.4,0-0.5,0s-0.3-0.1-0.4-0.1c-0.1-0.1-0.2-0.1-0.2-0.2c-0.1-0.1-0.1-0.2-0.1-0.3c0-0.2,0-0.5,0-0.9c0-0.5,0.1-0.9,0.3-1.1
		h0c0.2-0.2,0.5-0.3,1.1-0.3h1c0.3,0,0.6,0.1,0.8,0.2c0.2,0.1,0.3,0.4,0.3,0.6v0c0,0,0,0,0,0h-0.3c0,0,0,0,0,0v0
		c0-0.3-0.2-0.5-0.7-0.5h-1c-0.2,0-0.3,0-0.4,0c-0.1,0-0.2,0-0.3,0.1c-0.1,0.1-0.2,0.2-0.2,0.4c0,0.1,0,0.1,0,0.3c0,0.1,0,0.3,0,0.5
		c0,0.2,0,0.4,0,0.5c0,0.1,0.1,0.2,0.1,0.3c0.1,0.1,0.4,0.2,0.7,0.2h1.1c0.2,0,0.4,0,0.5-0.1c0.1-0.1,0.2-0.2,0.2-0.4v0c0,0,0,0,0,0
		L154,32.9L154,32.9C154,32.9,154,32.9,154,32.9L154,32.9z"/>
	<path class="st5" d="M154.4,33.8C154.3,33.8,154.3,33.7,154.4,33.8l0-2.9c0,0,0,0,0,0h0.2c0,0,0,0,0,0v2.9c0,0,0,0,0,0H154.4z"/>
	<path class="st5" d="M158.3,32.9c0,0.1,0,0.3-0.1,0.4c0,0.1-0.1,0.2-0.2,0.2s-0.2,0.1-0.3,0.1v0c-0.1,0-0.2,0-0.4,0.1s-0.3,0-0.5,0
		h-0.5c-0.5,0-0.8,0-1-0.1c-0.2-0.1-0.3-0.3-0.4-0.5c0-0.1,0-0.2-0.1-0.4s0-0.4,0-0.6c0-0.2,0-0.4,0-0.5c0-0.1,0-0.3,0.1-0.4
		c0-0.1,0.1-0.2,0.2-0.2c0.1-0.1,0.2-0.1,0.3-0.2h0c0.2-0.1,0.5-0.1,0.9-0.1h0.5c0.5,0,0.8,0,1,0.1c0.1,0,0.2,0.1,0.3,0.2
		c0.1,0.1,0.1,0.2,0.2,0.3c0,0.1,0,0.2,0,0.4c0,0.2,0,0.4,0,0.6C158.4,32.6,158.3,32.8,158.3,32.9z M158,32.1c0-0.2,0-0.3,0-0.4
		c0-0.1,0-0.2-0.1-0.3c0-0.1-0.1-0.2-0.3-0.2c-0.1,0-0.4,0-0.7,0h-0.4c-0.3,0-0.6,0-0.7,0c-0.2,0-0.3,0.1-0.3,0.2
		c-0.1,0.1-0.1,0.4-0.1,0.7v0.3c0,0.3,0,0.5,0.1,0.7c0.1,0.1,0.2,0.2,0.3,0.2c0.1,0,0.4,0,0.7,0h0.4c0.3,0,0.6,0,0.7,0
		c0.2,0,0.3-0.1,0.3-0.2c0-0.1,0.1-0.2,0.1-0.3c0-0.1,0-0.3,0-0.4V32.1z"/>
	<path class="st5" d="M161.8,33.6c-0.1,0.1-0.2,0.1-0.3,0.1s-0.3,0-0.4,0h-1.5c-0.3,0-0.5-0.1-0.7-0.2c-0.2-0.2-0.3-0.4-0.3-0.7
		c0,0,0,0,0,0h0.3c0,0,0,0,0,0c0,0.1,0,0.2,0.1,0.2s0.1,0.1,0.2,0.1c0,0,0.1,0,0.2,0.1c0.1,0,0.2,0,0.3,0h1.3c0.1,0,0.2,0,0.3,0
		c0.1,0,0.1,0,0.2-0.1c0.1,0,0.1-0.1,0.1-0.2c0-0.1,0-0.1,0-0.2c0-0.2-0.1-0.3-0.3-0.4c-0.1,0-0.2-0.1-0.3-0.1c-0.1,0-0.2,0-0.4,0
		c0,0-0.1,0-0.1,0c0,0-0.1,0-0.1,0h-0.1h-0.1c0,0,0,0,0,0c0,0,0,0,0,0h-0.1c-0.1,0-0.1,0-0.2,0s-0.1,0-0.1,0c-0.4,0-0.7,0-0.9-0.1
		c-0.3-0.1-0.4-0.4-0.4-0.7c0-0.5,0.3-0.8,0.9-0.8h1.5c0.7,0,1,0.3,1,0.9c0,0,0,0,0,0h-0.3c0,0,0,0,0,0c0-0.1,0-0.2-0.1-0.2
		c0-0.1-0.1-0.1-0.2-0.2c-0.1-0.1-0.3-0.1-0.5-0.1h-1.4c-0.1,0-0.2,0-0.2,0s-0.1,0-0.2,0.1c-0.1,0.1-0.1,0.2-0.1,0.3
		s0.1,0.3,0.3,0.4c0.1,0.1,0.4,0.1,0.7,0.1c0,0,0.1,0,0.1,0c0.1,0,0.1,0,0.2,0c0,0,0,0,0,0c0,0,0,0,0,0h0.1c0.1,0,0.1,0,0.1,0
		s0.1,0,0.1,0c0.2,0,0.4,0,0.6,0c0.2,0,0.3,0.1,0.4,0.1c0.3,0.1,0.4,0.4,0.4,0.7C162.1,33.2,162,33.4,161.8,33.6z"/>
	<path class="st5" d="M165.2,31.2v2.5c0,0,0,0,0,0h-0.3c0,0,0,0,0,0v-2.5h-1.3c0,0,0,0,0,0v-0.3c0,0,0,0,0,0h3c0,0,0,0,0,0v0.3
		c0,0,0,0,0,0H165.2z"/>
	<path class="st5" d="M166.8,33.8C166.8,33.8,166.7,33.7,166.8,33.8l0-2.9c0,0,0,0,0,0h2.5c0,0,0,0,0,0v0.3c0,0,0,0,0,0h-2.2V32h2.1
		c0,0,0,0,0,0v0.3c0,0,0,0,0,0h-2.1v0.9h2.2c0,0,0,0,0,0v0.3c0,0,0,0,0,0H166.8z"/>
	<path class="st5" d="M172.9,32.9C172.9,32.9,172.9,32.9,172.9,32.9c0,0.3-0.1,0.6-0.3,0.7c-0.2,0.1-0.4,0.2-0.8,0.2h-1.1
		c-0.2,0-0.4,0-0.5,0s-0.3-0.1-0.4-0.1c-0.1-0.1-0.2-0.1-0.2-0.2c-0.1-0.1-0.1-0.2-0.1-0.3c0-0.2,0-0.5,0-0.9c0-0.5,0.1-0.9,0.3-1.1
		h0c0.2-0.2,0.5-0.3,1.1-0.3h1c0.3,0,0.6,0.1,0.8,0.2c0.2,0.1,0.3,0.4,0.3,0.6v0c0,0,0,0,0,0h-0.3c0,0,0,0,0,0v0
		c0-0.3-0.2-0.5-0.7-0.5h-1c-0.2,0-0.3,0-0.4,0c-0.1,0-0.2,0-0.3,0.1c-0.1,0.1-0.2,0.2-0.2,0.4c0,0.1,0,0.1,0,0.3c0,0.1,0,0.3,0,0.5
		c0,0.2,0,0.4,0,0.5c0,0.1,0.1,0.2,0.1,0.3c0.1,0.1,0.4,0.2,0.7,0.2h1.1c0.2,0,0.4,0,0.5-0.1c0.1-0.1,0.2-0.2,0.2-0.4v0c0,0,0,0,0,0
		L172.9,32.9L172.9,32.9C172.9,32.9,172.9,32.9,172.9,32.9L172.9,32.9z"/>
	<path class="st5" d="M176,33.8C176,33.8,176,33.8,176,33.8l-2.3-2.7h-0.1v2.6c0,0,0,0,0,0h-0.3c0,0,0,0,0,0v-2.9c0,0,0,0,0,0h0.7
		c0,0,0,0,0,0l2.1,2.5v-2.5c0,0,0,0,0,0h0.3c0,0,0,0,0,0v2.9c0,0,0,0,0,0H176z"/>
	<path class="st5" d="M176.8,33.8C176.8,33.8,176.8,33.7,176.8,33.8l0-2.9c0,0,0,0,0,0h0.2c0,0,0,0,0,0v2.9c0,0,0,0,0,0H176.8z"/>
	<path class="st5" d="M180.8,32.9C180.8,32.9,180.8,32.9,180.8,32.9c0,0.3-0.1,0.6-0.3,0.7c-0.2,0.1-0.4,0.2-0.8,0.2h-1.1
		c-0.2,0-0.4,0-0.5,0s-0.3-0.1-0.4-0.1c-0.1-0.1-0.2-0.1-0.2-0.2c-0.1-0.1-0.1-0.2-0.1-0.3c0-0.2,0-0.5,0-0.9c0-0.5,0.1-0.9,0.3-1.1
		h0c0.2-0.2,0.5-0.3,1.1-0.3h1c0.3,0,0.6,0.1,0.8,0.2c0.2,0.1,0.3,0.4,0.3,0.6v0c0,0,0,0,0,0h-0.3c0,0,0,0,0,0v0
		c0-0.3-0.2-0.5-0.7-0.5h-1c-0.2,0-0.3,0-0.4,0c-0.1,0-0.2,0-0.3,0.1c-0.1,0.1-0.2,0.2-0.2,0.4c0,0.1,0,0.1,0,0.3c0,0.1,0,0.3,0,0.5
		c0,0.2,0,0.4,0,0.5c0,0.1,0.1,0.2,0.1,0.3c0.1,0.1,0.4,0.2,0.7,0.2h1.1c0.2,0,0.4,0,0.5-0.1c0.1-0.1,0.2-0.2,0.2-0.4v0c0,0,0,0,0,0
		L180.8,32.9L180.8,32.9C180.8,32.9,180.8,32.9,180.8,32.9L180.8,32.9z"/>
	<path class="st5" d="M184.5,32.9c0,0.1,0,0.3-0.1,0.4c0,0.1-0.1,0.2-0.2,0.2s-0.2,0.1-0.3,0.1v0c-0.1,0-0.2,0-0.4,0.1s-0.3,0-0.5,0
		h-0.5c-0.5,0-0.8,0-1-0.1c-0.2-0.1-0.3-0.3-0.4-0.5c0-0.1,0-0.2-0.1-0.4s0-0.4,0-0.6c0-0.2,0-0.4,0-0.5c0-0.1,0-0.3,0.1-0.4
		c0-0.1,0.1-0.2,0.2-0.2c0.1-0.1,0.2-0.1,0.3-0.2h0c0.2-0.1,0.5-0.1,0.9-0.1h0.5c0.5,0,0.8,0,1,0.1c0.1,0,0.2,0.1,0.3,0.2
		c0.1,0.1,0.1,0.2,0.2,0.3c0,0.1,0,0.2,0,0.4c0,0.2,0,0.4,0,0.6C184.5,32.6,184.5,32.8,184.5,32.9z M184.2,32.1c0-0.2,0-0.3,0-0.4
		c0-0.1,0-0.2-0.1-0.3c0-0.1-0.1-0.2-0.3-0.2c-0.1,0-0.4,0-0.7,0h-0.4c-0.3,0-0.6,0-0.7,0c-0.2,0-0.3,0.1-0.3,0.2
		c-0.1,0.1-0.1,0.4-0.1,0.7v0.3c0,0.3,0,0.5,0.1,0.7c0.1,0.1,0.2,0.2,0.3,0.2c0.1,0,0.4,0,0.7,0h0.4c0.3,0,0.6,0,0.7,0
		c0.2,0,0.3-0.1,0.3-0.2c0-0.1,0.1-0.2,0.1-0.3c0-0.1,0-0.3,0-0.4V32.1z"/>
	<path class="st5" d="M188,33.6c-0.1,0.1-0.2,0.1-0.3,0.1s-0.3,0-0.4,0h-1.5c-0.3,0-0.5-0.1-0.7-0.2c-0.2-0.2-0.3-0.4-0.3-0.7
		c0,0,0,0,0,0h0.3c0,0,0,0,0,0c0,0.1,0,0.2,0.1,0.2s0.1,0.1,0.2,0.1c0,0,0.1,0,0.2,0.1c0.1,0,0.2,0,0.3,0h1.3c0.1,0,0.2,0,0.3,0
		c0.1,0,0.1,0,0.2-0.1c0.1,0,0.1-0.1,0.1-0.2c0-0.1,0-0.1,0-0.2c0-0.2-0.1-0.3-0.3-0.4c-0.1,0-0.2-0.1-0.3-0.1c-0.1,0-0.2,0-0.4,0
		c0,0-0.1,0-0.1,0c0,0-0.1,0-0.1,0h-0.1h-0.1c0,0,0,0,0,0c0,0,0,0,0,0h-0.1c-0.1,0-0.1,0-0.2,0s-0.1,0-0.1,0c-0.4,0-0.7,0-0.9-0.1
		c-0.3-0.1-0.4-0.4-0.4-0.7c0-0.5,0.3-0.8,0.9-0.8h1.5c0.7,0,1,0.3,1,0.9c0,0,0,0,0,0h-0.3c0,0,0,0,0,0c0-0.1,0-0.2-0.1-0.2
		c0-0.1-0.1-0.1-0.2-0.2c-0.1-0.1-0.3-0.1-0.5-0.1h-1.4c-0.1,0-0.2,0-0.2,0s-0.1,0-0.2,0.1c-0.1,0.1-0.1,0.2-0.1,0.3
		s0.1,0.3,0.3,0.4c0.1,0.1,0.4,0.1,0.7,0.1c0,0,0.1,0,0.1,0c0.1,0,0.1,0,0.2,0c0,0,0,0,0,0c0,0,0,0,0,0h0.1c0.1,0,0.1,0,0.1,0
		s0.1,0,0.1,0c0.2,0,0.4,0,0.6,0c0.2,0,0.3,0.1,0.4,0.1c0.3,0.1,0.4,0.4,0.4,0.7C188.3,33.2,188.2,33.4,188,33.6z"/>
	<path class="st5" d="M194.8,33.8C194.8,33.8,194.8,33.7,194.8,33.8l0-2.7h-0.1l-1.5,2.6c0,0,0,0,0,0h-0.2c0,0,0,0,0,0l-1.5-2.6
		h-0.1v2.6c0,0,0,0,0,0h-0.3c0,0,0,0,0,0v-2.9c0,0,0,0,0,0h0.7c0,0,0,0,0,0l1.4,2.4l1.4-2.4c0,0,0,0,0,0h0.6c0,0,0,0,0,0v2.9
		c0,0,0,0,0,0H194.8z"/>
	<path class="st5" d="M195.6,33.8C195.5,33.8,195.5,33.7,195.6,33.8l0-2.9c0,0,0,0,0,0h2.5c0,0,0,0,0,0v0.3c0,0,0,0,0,0h-2.2V32h2.1
		c0,0,0,0,0,0v0.3c0,0,0,0,0,0h-2.1v0.9h2.2c0,0,0,0,0,0v0.3c0,0,0,0,0,0H195.6z"/>
	<path class="st5" d="M201.4,33.8C201.4,33.8,201.4,33.8,201.4,33.8C201.4,33.8,201.4,33.8,201.4,33.8l-1.4-1.4l-1.3,1.3
		c0,0,0,0,0,0h-0.4c0,0,0,0,0,0c0,0,0,0,0,0c0,0,0,0,0,0l1.4-1.5l-1.3-1.3c0,0,0,0,0,0c0,0,0,0,0,0c0,0,0,0,0,0h0.4c0,0,0,0,0,0
		s0,0,0,0l1.2,1.2l1.2-1.2c0,0,0,0,0,0h0.4c0,0,0,0,0,0c0,0,0,0,0,0c0,0,0,0,0,0l-1.3,1.3l1.5,1.5c0,0,0,0,0,0c0,0,0,0,0,0
		c0,0,0,0,0,0H201.4z"/>
	<path class="st5" d="M202.2,33.8C202.1,33.8,202.1,33.7,202.2,33.8l0-2.9c0,0,0,0,0,0h0.2c0,0,0,0,0,0v2.9c0,0,0,0,0,0H202.2z"/>
	<path class="st5" d="M206.1,32.9C206.1,32.9,206.2,32.9,206.1,32.9c0,0.3-0.1,0.6-0.3,0.7c-0.2,0.1-0.4,0.2-0.8,0.2H204
		c-0.2,0-0.4,0-0.5,0s-0.3-0.1-0.4-0.1c-0.1-0.1-0.2-0.1-0.2-0.2c-0.1-0.1-0.1-0.2-0.1-0.3c0-0.2,0-0.5,0-0.9c0-0.5,0.1-0.9,0.3-1.1
		h0c0.2-0.2,0.5-0.3,1.1-0.3h1c0.3,0,0.6,0.1,0.8,0.2c0.2,0.1,0.3,0.4,0.3,0.6v0c0,0,0,0,0,0h-0.3c0,0,0,0,0,0v0
		c0-0.3-0.2-0.5-0.7-0.5h-1c-0.2,0-0.3,0-0.4,0c-0.1,0-0.2,0-0.3,0.1c-0.1,0.1-0.2,0.2-0.2,0.4c0,0.1,0,0.1,0,0.3c0,0.1,0,0.3,0,0.5
		c0,0.2,0,0.4,0,0.5c0,0.1,0.1,0.2,0.1,0.3c0.1,0.1,0.4,0.2,0.7,0.2h1.1c0.2,0,0.4,0,0.5-0.1c0.1-0.1,0.2-0.2,0.2-0.4v0c0,0,0,0,0,0
		L206.1,32.9L206.1,32.9C206.1,32.9,206.1,32.9,206.1,32.9L206.1,32.9z"/>
	<path class="st5" d="M209.8,32.9c0,0.1,0,0.3-0.1,0.4c0,0.1-0.1,0.2-0.2,0.2s-0.2,0.1-0.3,0.1v0c-0.1,0-0.2,0-0.4,0.1s-0.3,0-0.5,0
		h-0.5c-0.5,0-0.8,0-1-0.1c-0.2-0.1-0.3-0.3-0.4-0.5c0-0.1,0-0.2-0.1-0.4s0-0.4,0-0.6c0-0.2,0-0.4,0-0.5c0-0.1,0-0.3,0.1-0.4
		c0-0.1,0.1-0.2,0.2-0.2c0.1-0.1,0.2-0.1,0.3-0.2h0c0.2-0.1,0.5-0.1,0.9-0.1h0.5c0.5,0,0.8,0,1,0.1c0.1,0,0.2,0.1,0.3,0.2
		c0.1,0.1,0.1,0.2,0.2,0.3c0,0.1,0,0.2,0,0.4c0,0.2,0,0.4,0,0.6C209.9,32.6,209.8,32.8,209.8,32.9z M209.5,32.1c0-0.2,0-0.3,0-0.4
		c0-0.1,0-0.2-0.1-0.3c0-0.1-0.1-0.2-0.3-0.2c-0.1,0-0.4,0-0.7,0h-0.4c-0.3,0-0.6,0-0.7,0c-0.2,0-0.3,0.1-0.3,0.2
		c-0.1,0.1-0.1,0.4-0.1,0.7v0.3c0,0.3,0,0.5,0.1,0.7c0.1,0.1,0.2,0.2,0.3,0.2c0.1,0,0.4,0,0.7,0h0.4c0.3,0,0.6,0,0.7,0
		c0.2,0,0.3-0.1,0.3-0.2c0-0.1,0.1-0.2,0.1-0.3c0-0.1,0-0.3,0-0.4V32.1z"/>
	<path class="st5" d="M211.3,33.8C211.3,33.8,211.3,33.7,211.3,33.8l0-0.3c0,0,0,0,0,0h0.3c0,0,0,0,0,0v0.3c0,0,0,0,0,0H211.3z"/>
	<path class="st5" d="M215.1,33.6c-0.1,0.1-0.2,0.1-0.3,0.1s-0.3,0-0.4,0H213c-0.3,0-0.5-0.1-0.7-0.2c-0.2-0.2-0.3-0.4-0.3-0.7
		c0,0,0,0,0,0h0.3c0,0,0,0,0,0c0,0.1,0,0.2,0.1,0.2s0.1,0.1,0.2,0.1c0,0,0.1,0,0.2,0.1c0.1,0,0.2,0,0.3,0h1.3c0.1,0,0.2,0,0.3,0
		c0.1,0,0.1,0,0.2-0.1c0.1,0,0.1-0.1,0.1-0.2c0-0.1,0-0.1,0-0.2c0-0.2-0.1-0.3-0.3-0.4c-0.1,0-0.2-0.1-0.3-0.1c-0.1,0-0.2,0-0.4,0
		c0,0-0.1,0-0.1,0c0,0-0.1,0-0.1,0h-0.1h-0.1c0,0,0,0,0,0c0,0,0,0,0,0h-0.1c-0.1,0-0.1,0-0.2,0s-0.1,0-0.1,0c-0.4,0-0.7,0-0.9-0.1
		c-0.3-0.1-0.4-0.4-0.4-0.7c0-0.5,0.3-0.8,0.9-0.8h1.5c0.7,0,1,0.3,1,0.9c0,0,0,0,0,0H215c0,0,0,0,0,0c0-0.1,0-0.2-0.1-0.2
		c0-0.1-0.1-0.1-0.2-0.2c-0.1-0.1-0.3-0.1-0.5-0.1h-1.4c-0.1,0-0.2,0-0.2,0s-0.1,0-0.2,0.1c-0.1,0.1-0.1,0.2-0.1,0.3
		s0.1,0.3,0.3,0.4c0.1,0.1,0.4,0.1,0.7,0.1c0,0,0.1,0,0.1,0c0.1,0,0.1,0,0.2,0c0,0,0,0,0,0c0,0,0,0,0,0h0.1c0.1,0,0.1,0,0.1,0
		s0.1,0,0.1,0c0.2,0,0.4,0,0.6,0c0.2,0,0.3,0.1,0.4,0.1c0.3,0.1,0.4,0.4,0.4,0.7C215.4,33.2,215.3,33.4,215.1,33.6z"/>
	<path class="st5" d="M215.7,33.8C215.7,33.8,215.7,33.7,215.7,33.8l0-0.3c0,0,0,0,0,0h0.3c0,0,0,0,0,0v0.3c0,0,0,0,0,0H215.7z"/>
	<path class="st5" d="M219.3,33.8L219.3,33.8C219.3,33.8,219.3,33.7,219.3,33.8L219.3,33.8l-0.4-0.7h-2l-0.3,0.7v0c0,0,0,0,0,0h0
		h-0.3c0,0,0,0,0,0v0c0,0,0,0,0,0v0l1.5-2.9c0,0,0,0,0,0h0.5c0,0,0,0,0,0c0,0,0,0,0,0l1.5,2.9v0c0,0,0,0,0,0v0c0,0,0,0,0,0H219.3z
		 M217.2,32.7h1.6l-0.8-1.6L217.2,32.7z"/>
	<path class="st5" d="M219.9,33.8C219.9,33.8,219.9,33.7,219.9,33.8l0-0.3c0,0,0,0,0,0h0.3c0,0,0,0,0,0v0.3c0,0,0,0,0,0H219.9z"/>
	<path class="st5" d="M224.9,33.1c0,0.2-0.1,0.3-0.2,0.4c-0.1,0.1-0.2,0.2-0.4,0.2s-0.4,0.1-0.7,0.1h-2c0,0,0,0,0,0v-2.9
		c0,0,0,0,0,0h1.9c0.4,0,0.7,0.1,0.9,0.2c0.2,0.1,0.3,0.3,0.4,0.5c0,0.1,0,0.2,0,0.4c0,0.2,0,0.3,0,0.6
		C225,32.7,225,32.9,224.9,33.1z M224.6,32.2c0-0.4-0.1-0.7-0.2-0.8c-0.1-0.1-0.4-0.2-0.8-0.2h-1.6v2.2h1.7c0.3,0,0.5,0,0.6-0.1
		c0.1,0,0.2-0.1,0.2-0.3c0-0.1,0-0.1,0-0.2c0-0.1,0-0.2,0-0.4V32.2z"/>
	<path class="st5" d="M225.4,33.8C225.4,33.8,225.3,33.7,225.4,33.8l0-2.9c0,0,0,0,0,0h2.5c0,0,0,0,0,0v0.3c0,0,0,0,0,0h-2.2V32h2.1
		c0,0,0,0,0,0v0.3c0,0,0,0,0,0h-2.1v0.9h2.2c0,0,0,0,0,0v0.3c0,0,0,0,0,0H225.4z"/>
	<path class="st5" d="M232.7,32.9C232.7,32.9,232.7,32.9,232.7,32.9c0,0.3-0.1,0.6-0.3,0.7c-0.2,0.1-0.4,0.2-0.8,0.2h-1.1
		c-0.2,0-0.4,0-0.5,0s-0.3-0.1-0.4-0.1c-0.1-0.1-0.2-0.1-0.2-0.2c-0.1-0.1-0.1-0.2-0.1-0.3c0-0.2,0-0.5,0-0.9c0-0.5,0.1-0.9,0.3-1.1
		h0c0.2-0.2,0.5-0.3,1.1-0.3h1c0.3,0,0.6,0.1,0.8,0.2c0.2,0.1,0.3,0.4,0.3,0.6v0c0,0,0,0,0,0h-0.3c0,0,0,0,0,0v0
		c0-0.3-0.2-0.5-0.7-0.5h-1c-0.2,0-0.3,0-0.4,0c-0.1,0-0.2,0-0.3,0.1c-0.1,0.1-0.2,0.2-0.2,0.4c0,0.1,0,0.1,0,0.3c0,0.1,0,0.3,0,0.5
		c0,0.2,0,0.4,0,0.5c0,0.1,0.1,0.2,0.1,0.3c0.1,0.1,0.4,0.2,0.7,0.2h1.1c0.2,0,0.4,0,0.5-0.1c0.1-0.1,0.2-0.2,0.2-0.4v0c0,0,0,0,0,0
		L232.7,32.9L232.7,32.9C232.6,32.9,232.6,32.9,232.7,32.9L232.7,32.9z"/>
	<path class="st5" d="M233,33.8C233,33.8,232.9,33.7,233,33.8l0-0.3c0,0,0,0,0,0h0.3c0,0,0,0,0,0v0.3c0,0,0,0,0,0H233z"/>
	<path class="st5" d="M234.8,33.7C234.8,33.8,234.8,33.8,234.8,33.7l-0.4,0c0,0,0,0,0,0l-1.5-2.9v0c0,0,0,0,0,0c0,0,0,0,0,0
		c0,0,0,0,0,0h0.3c0,0,0,0,0,0c0,0,0,0,0,0l1.3,2.5h0l1.3-2.5c0,0,0,0,0,0h0.3c0,0,0,0,0,0c0,0,0,0,0,0c0,0,0,0,0,0v0L234.8,33.7z
		 M233.2,30.8L233.2,30.8L233.2,30.8L233.2,30.8z"/>
	<path class="st5" d="M235.3,33.8C235.3,33.8,235.3,33.7,235.3,33.8l0-0.3c0,0,0,0,0,0h0.3c0,0,0,0,0,0v0.3c0,0,0,0,0,0H235.3z"/>
</g>
</svg>
