<?xml version="1.0" encoding="utf-8"?>
<!-- Generator: Adobe Illustrator 19.0.1, SVG Export Plug-In . SVG Version: 6.00 Build 0)  -->
<!DOCTYPE svg PUBLIC "-//W3C//DTD SVG 1.1//EN" "http://www.w3.org/Graphics/SVG/1.1/DTD/svg11.dtd">
<svg version="1.1" id="Layer_1" xmlns="http://www.w3.org/2000/svg" xmlns:xlink="http://www.w3.org/1999/xlink" x="0px" y="0px"
	 width="200px" height="100px" viewBox="0 0 200 100" enable-background="new 0 0 200 100" xml:space="preserve">
<g>
	<path fill="#4E4D4E" d="M32.8,55.7c0,0,36.2-14.5,53.3-17.2c10.5-1.6,20.1-0.4,26.5,1c7,1.5,52.7,15.3,52.7,15.3
		c-47.1-16.1-43.5-18-56.5-21.2c-9.2-2.2-14.7-2.2-27.6,1.4c-11,3.1-15.4,5.3-15.4,5.3L32.8,55.7z"/>
	<path fill="#F7CC1B" d="M31.2,55.7c0,0,54.9-35.6,61.4-40.6c4.9-3.8,9.7-3.2,13.7,0.5c0,0,35.8,30.3,60.2,38.2
		c-30.3-9.8-27.3-8.4-59.1-23.9c-10.6-5.2-17.8-0.1-24.9,2.1L31.2,55.7z"/>
	<path fill="#119A48" d="M70.4,31.5c0,0,12.4-8.9,16.5-10.5c4.4-1.7,9.7-1.2,14,4.6c2.2,2.9,6.3,13.4,6.3,13.4S100.8,25.1,91,24.4
		C85,23.9,81.2,26.4,70.4,31.5z"/>
</g>
<rect x="46.1" y="50.7" fill="none" width="109" height="30.3"/>
<text transform="matrix(1 0 0 1 46.1437 63.1544)"><tspan x="0" y="0" fill="#010101" font-family="'Acens'" font-size="16.3917px">SPECTRUM</tspan><tspan x="0" y="5.6" fill="#010101" font-family="'Acens'" font-size="4.6834px">SERVICIOS TECNICOS  MEXICO .S.A. DE C.V.</tspan></text>
</svg>
